Coordinates
version=1
nRows=14
nColumns=40
inDegrees=yes

Units are S.I. units (second, meters, Newtons, ...)
Angles are in degrees.

endheader
time	pelvis_tilt	pelvis_list	pelvis_rotation	pelvis_tx	pelvis_ty	pelvis_tz	hip_flexion_r	hip_adduction_r	hip_rotation_r	knee_angle_r	knee_angle_r_beta	ankle_angle_r	subtalar_angle_r	mtp_angle_r	hip_flexion_l	hip_adduction_l	hip_rotation_l	knee_angle_l	knee_angle_l_beta	ankle_angle_l	subtalar_angle_l	mtp_angle_l	lumbar_extension	lumbar_bending	lumbar_rotation	arm_flex_r	arm_add_r	arm_rot_r	elbow_flex_r	pro_sup_r	wrist_flex_r	wrist_dev_r	arm_flex_l	arm_add_l	arm_rot_l	elbow_flex_l	pro_sup_l	wrist_flex_l	wrist_dev_l
     28.11000000	     -3.63422223	     -4.42402290	      0.42545907	      1.10398837	      0.92659891	      0.43401148	     28.27366864	     -7.27925766	     -6.03640416	     69.07724873	     69.07724873	     -6.11646822	    -17.82717286	      2.59794442	     16.11760138	     -5.62136611	     -4.76992791	     26.65294337	     26.65294337	     15.68051329	    -14.03628655	      3.31465453	    -11.08878262	      4.53367065	      1.28230135	      5.12616902	    -14.83725036	    -12.01939346	     32.00258702	     45.51911660	      0.00000000	      0.00000000	      9.03881317	    -15.85797885	      7.78516858	     46.48318632	     46.07395724	      0.00000000	      0.00000000
     28.12342857	     -3.67392621	     -4.62220945	      0.05393292	      1.10266974	      0.92730374	      0.43351606	     29.45565682	     -7.05230363	     -6.12985922	     68.73394278	     68.73394278	     -5.59832627	    -17.78757661	      2.41360276	     15.61524388	     -5.81263528	     -4.96887178	     26.33917679	     26.33917679	     15.83682236	    -14.19576849	      3.38850013	    -11.25186679	      4.80735843	      0.96834048	      5.05360935	    -15.08792013	    -12.07279539	     31.89898134	     45.52858484	      0.00000000	      0.00000000	      9.58270542	    -15.86394940	      7.76319044	     46.74459115	     46.08460453	      0.00000000	      0.00000000
     28.13685714	     -3.63475426	     -4.75202413	     -0.40642617	      1.10151680	      0.92840083	      0.43305582	     30.44040625	     -6.84489630	     -6.18145878	     68.10019938	     68.10019938	     -5.18511221	    -17.75979576	      2.37263266	     14.77605137	     -5.90140796	     -5.24016391	     25.59301918	     25.59301918	     15.86860092	    -14.35175215	      3.59659609	    -11.54433077	      5.00516687	      1.33943558	      4.78238188	    -15.49674611	    -12.40256263	     31.29750261	     45.58639460	      0.00000000	      0.00000000	     10.13357189	    -15.71821163	      7.80709214	     47.93736039	     46.10155640	      0.00000000	      0.00000000
     28.15028571	     -3.60845568	     -4.89983587	     -0.87013981	      1.10039201	      0.92937095	      0.43276330	     31.35180643	     -6.56129484	     -6.24582258	     67.23797680	     67.23797680	     -4.70710608	    -17.70545177	      2.42506872	     14.01428102	     -6.04651330	     -5.60664419	     24.97709065	     24.97709065	     15.94069322	    -14.35438277	      3.66523584	    -11.81747922	      5.20428409	      1.37369512	      4.70808606	    -15.74467385	    -12.89638753	     30.91315904	     45.64836649	      0.00000000	      0.00000000	     10.47774173	    -15.80217521	      7.90135626	     49.19564774	     46.11349607	      0.00000000	      0.00000000
     28.16371429	     -3.67725059	     -5.03187193	     -1.35724322	      1.09926564	      0.93014274	      0.43257825	     32.26450876	     -6.27209506	     -6.34546000	     66.05845361	     66.05845361	     -4.19027834	    -17.55449246	      2.54395924	     13.36814873	     -6.18002360	     -6.00076262	     24.37774163	     24.37774163	     15.96405292	    -14.36711562	      3.57232476	    -11.97666622	      5.39916457	      1.28320561	      4.83631981	    -15.82357123	    -14.02726717	     30.45626192	     45.77110698	      0.00000000	      0.00000000	     10.40186275	    -16.10694529	      8.13390020	     51.25142178	     46.12564524	      0.00000000	      0.00000000
     28.17714286	     -3.80916027	     -5.18768994	     -1.86246216	      1.09810655	      0.93088353	      0.43255773	     33.08400660	     -5.90247126	     -6.47085633	     64.42318191	     64.42318191	     -3.69436706	    -17.33200041	      2.51524384	     12.79686527	     -6.34246925	     -6.39083175	     23.78922321	     23.78922321	     16.02305429	    -14.39353911	      3.69546439	    -12.07273877	      5.63718159	      1.19608147	      4.88015596	    -16.00472478	    -14.18857689	     30.38980266	     45.78929596	      0.00000000	      0.00000000	     10.83822115	    -16.13289711	      8.10149447	     51.71782926	     46.13993047	      0.00000000	      0.00000000
     28.19057143	     -3.86965547	     -5.31496818	     -2.39126349	      1.09704117	      0.93177902	      0.43271576	     33.64600591	     -5.50035708	     -6.58278439	     62.29861091	     62.29861091	     -3.12963424	    -16.97255932	      2.37473822	     12.04177980	     -6.47578002	     -6.87221971	     23.00705663	     23.00705663	     16.00020904	    -14.34222533	      3.84427221	    -12.31765691	      5.84463716	      1.35779275	      4.84228983	    -16.19299192	    -14.43671158	     30.24032776	     45.81792441	      0.00000000	      0.00000000	     11.22176873	    -16.07893046	      8.04780968	     52.62158484	     46.16161772	      0.00000000	      0.00000000
     28.20400000	     -3.99356865	     -5.35964117	     -2.98703198	      1.09599671	      0.93234828	      0.43309626	     34.09667619	     -5.12628033	     -6.65724925	     59.64664499	     59.64664499	     -2.98549620	    -16.60033736	      0.67216601	     11.38575156	     -6.53324538	     -7.39798060	     22.31163407	     22.31163407	     15.87670511	    -14.40207548	      3.40688582	    -12.51363927	      5.88673583	      1.25223341	      5.20727478	    -16.02326464	    -15.91563402	     30.02197388	     45.96199633	      0.00000000	      0.00000000	     10.76159335	    -16.52458558	      7.86449169	     55.66728310	     46.23146085	      0.00000000	      0.00000000
     28.21742857	     -4.20875244	     -5.49312285	     -3.54584998	      1.09488070	      0.93283714	      0.43366281	     34.45606785	     -4.61617941	     -6.81037914	     56.53020238	     56.53020238	     -2.32159009	    -15.73574677	      0.34803213	     10.84145149	     -6.68699164	     -7.82864599	     21.62559601	     21.62559601	     15.92204335	    -14.37475582	      3.48160446	    -12.57859493	      6.08679386	      1.40346767	      5.32682193	    -16.08846318	    -16.06136767	     29.94848936	     45.98106109	      0.00000000	      0.00000000	     11.19755822	    -16.48023066	      7.73306248	     56.21929126	     46.25761266	      0.00000000	      0.00000000
     28.23085714	     -4.48278147	     -5.56421856	     -4.10649060	      1.09368675	      0.93300332	      0.43442045	     34.58414549	     -4.12744589	     -6.97940314	     52.72890689	     52.72890689	     -2.57718252	    -15.07308033	     -2.85010261	     10.44295816	     -6.82020394	     -8.38175328	     21.06328345	     21.06328345	     15.68229070	    -14.41768324	      2.87078900	    -12.67816420	      6.19299203	      1.26549295	      5.81355519	    -15.81818694	    -17.00130043	     29.87356133	     46.08165224	      0.00000000	      0.00000000	     10.93731795	    -16.71544384	      7.06474730	     58.39766823	     46.36851920	      0.00000000	      0.00000000
     28.24428571	     -4.82289911	     -5.73033498	     -4.59985342	      1.09258436	      0.93305817	      0.43536143	     34.58596806	     -3.50017268	     -7.21652115	     48.60663424	     48.60663424	     -1.72225561	    -13.55485266	     -3.13295121	     10.07029414	     -7.03993323	     -8.76654417	     20.44135086	     20.44135086	     15.74412852	    -14.33660861	      2.89137873	    -12.59529414	      6.44617353	      1.40925424	      5.92858731	    -15.82529749	    -17.03269168	     29.84625083	     46.08948029	      0.00000000	      0.00000000	     11.38887970	    -16.58900214	      6.96463616	     58.92640494	     46.39186458	      0.00000000	      0.00000000
     28.25771429	     -5.23791045	     -5.87984983	     -5.05582482	      1.09143854	      0.93276400	      0.43648760	     34.42195533	     -2.84747300	     -7.48568491	     44.06769546	     44.06769546	     -0.95729178	    -11.76527446	     -3.36559990	      9.87790901	     -7.28296346	     -9.15725673	     19.99010789	     19.99010789	     15.81937725	    -14.26440438	      2.77970138	    -12.44716519	      6.66708331	      1.52711570	      6.10368467	    -15.69533936	    -17.04525109	     29.92538677	     46.09071132	      0.00000000	      0.00000000	     11.78836155	    -16.53748961	      6.85447526	     59.60115466	     46.41669286	      0.00000000	      0.00000000
     28.27114286	     -5.56607055	     -5.94029707	     -5.45229497	      1.09049626	      0.93230447	      0.43772823	     33.87270583	     -2.36535040	     -7.98048468	     39.14151130	     39.14151130	     -0.46912575	     -9.33186115	     -4.49498009	      9.59550366	     -7.47246536	     -9.75141116	     19.55479033	     19.55479033	     15.79012015	    -13.87009580	      2.05897390	    -12.42190217	      6.78219750	      1.52182975	      6.31977750	    -15.44956626	    -17.13851449	     30.18100002	     46.09678066	      0.00000000	      0.00000000	     11.82344112	    -16.62362241	      6.43874697	     61.25412758	     46.48606276	      0.00000000	      0.00000000
     28.28457143	     -6.00159718	     -6.08254938	     -5.75164123	      1.08960093	      0.93152758	      0.43921416	     33.20284851	     -1.60552043	     -8.23701612	     33.98580488	     33.98580488	      0.02108783	     -7.40585102	     -4.07329755	      9.55324102	     -7.74345252	     -9.96877649	     19.34214998	     19.34214998	     15.89755802	    -13.87210492	      1.80078334	    -12.18822159	      7.00759436	      1.47367632	      6.55184034	    -15.19202708	    -17.10210220	     30.33856852	     46.09096402	      0.00000000	      0.00000000	     12.16639312	    -16.63153649	      6.34983635	     61.81404403	     46.50752301	      0.00000000	      0.00000000
